<svg width="44" height="12" viewBox="0 0 44 12" fill="none" xmlns="http://www.w3.org/2000/svg">
<path d="M0.26186 1.54061L4.08828 2.71809C4.08828 2.71809 4.50563 3.02395 4.98081 3.36511C5.38298 3.2195 5.82658 3.05432 6.32933 2.85956C10.675 1.17614 16.2637 0 19.9211 0C20.3797 0 20.8082 0.0194496 21.1917 0.0566161C23.233 0.253639 26.0422 1.27099 29.5423 3.07763C29.6866 3.15276 29.7817 3.20219 29.8175 3.21764C30.8285 3.65058 32.0907 3.86119 33.6774 3.86119C34.88 3.86119 36.0606 3.73877 37.0084 3.64086C37.5327 3.58637 37.9924 3.53908 38.3584 3.52043C38.4743 3.51497 38.5774 3.51217 38.6683 3.51217C39.4119 3.51217 39.6303 3.70094 39.7935 4.07167C39.8642 4.23273 39.9441 4.41483 40.656 4.61491C42.5454 5.1447 43.8574 6.62497 43.9115 6.68705L43.999 6.78629V9.80491L43.8091 9.90269C43.5627 10.0318 43.4728 10.1242 43.4483 10.147C43.7463 10.411 44.1192 10.8077 43.9633 11.2203C43.8071 11.6314 43.2697 11.6425 43.2087 11.6425H39.5817C39.6524 11.5287 39.7173 11.4108 39.7772 11.2893C39.8345 11.1749 39.8862 11.0577 39.9327 10.9363C40.122 10.4493 40.2293 9.92227 40.2293 9.36891C40.2293 6.96787 38.2755 5.01322 35.8733 5.01322C33.4717 5.01322 31.5172 6.96707 31.5172 9.36891C31.5172 9.93453 31.629 10.4734 31.8258 10.9693C31.8731 11.0894 31.9269 11.2059 31.9849 11.3205C32.0456 11.4412 32.1118 11.5577 32.1825 11.6716L13.0438 11.8854C13.0438 11.8854 12.868 11.8902 12.5734 11.895C12.6562 11.7806 12.7334 11.6604 12.8038 11.5376C12.8706 11.4217 12.9313 11.3024 12.9879 11.1802C13.2424 10.6284 13.388 10.0159 13.388 9.36877C13.388 6.96773 11.4338 5.01309 9.03196 5.01309C6.63012 5.01309 4.67602 6.96693 4.67602 9.36877C4.67602 9.85513 4.75941 10.3214 4.90701 10.7582C4.95257 10.8961 5.00559 11.0293 5.065 11.1597C5.12641 11.2956 5.19475 11.4273 5.26988 11.5556C4.56412 11.4247 4.08548 11.2563 3.84343 11.0521C2.66582 10.0554 1.34355 5.28751 1.17597 4.6694L1.16011 4.58667L1.63409 4.50395L1.84297 4.43628C1.79954 4.31905 1.70922 4.27455 1.74998 4.27256C1.82232 4.27256 1.94234 4.26323 2.13564 4.22806C1.59346 3.54201 0.673222 3.09988 0.262123 2.89433C-0.32708 2.60019 0.26186 1.54061 0.26186 1.54061Z"/>
</svg>