<svg width="22" height="22" viewBox="0 0 22 22" fill="none" xmlns="http://www.w3.org/2000/svg">
<path d="M3.55696 4.657L0.313965 1.415L1.72896 0L4.97096 3.243H20.213C20.3688 3.24299 20.5225 3.27941 20.6618 3.34937C20.8011 3.41932 20.9221 3.52086 21.0152 3.6459C21.1083 3.77093 21.1708 3.91598 21.1979 4.06949C21.2249 4.22299 21.2157 4.38069 21.171 4.53L18.771 12.53C18.7092 12.7361 18.5827 12.9168 18.4101 13.0452C18.2375 13.1737 18.0281 13.243 17.813 13.243H5.55696V15.243H16.557V17.243H4.55696C4.29175 17.243 4.03739 17.1376 3.84986 16.9501C3.66232 16.7626 3.55696 16.5082 3.55696 16.243V4.657ZM5.55696 5.243V11.243H17.069L18.869 5.243H5.55696ZM5.05696 21.243C4.65914 21.243 4.27761 21.085 3.9963 20.8037C3.715 20.5224 3.55696 20.1408 3.55696 19.743C3.55696 19.3452 3.715 18.9636 3.9963 18.6823C4.27761 18.401 4.65914 18.243 5.05696 18.243C5.45479 18.243 5.83632 18.401 6.11763 18.6823C6.39893 18.9636 6.55696 19.3452 6.55696 19.743C6.55696 20.1408 6.39893 20.5224 6.11763 20.8037C5.83632 21.085 5.45479 21.243 5.05696 21.243ZM17.057 21.243C16.6591 21.243 16.2776 21.085 15.9963 20.8037C15.715 20.5224 15.557 20.1408 15.557 19.743C15.557 19.3452 15.715 18.9636 15.9963 18.6823C16.2776 18.401 16.6591 18.243 17.057 18.243C17.4548 18.243 17.8363 18.401 18.1176 18.6823C18.3989 18.9636 18.557 19.3452 18.557 19.743C18.557 20.1408 18.3989 20.5224 18.1176 20.8037C17.8363 21.085 17.4548 21.243 17.057 21.243Z"/>
</svg>
