<svg width="21" height="21" viewBox="0 0 21 21" fill="none" xmlns="http://www.w3.org/2000/svg">
<path d="M1.24515 0C1.79743 0 2.24515 0.447715 2.24515 1V16.9612C2.24515 17.5135 2.69286 17.9612 3.24515 17.9612H19.2063C19.7586 17.9612 20.2063 18.4089 20.2063 18.9612V19.2063C20.2063 19.7586 19.7586 20.2063 19.2063 20.2063H0.999999C0.447714 20.2063 0 19.7586 0 19.2063V0.999999C0 0.447714 0.447715 0 1 0H1.24515ZM18.7056 4.40358C19.0961 4.01313 19.7292 4.01317 20.1197 4.40366L20.2929 4.57685C20.6834 4.96737 20.6834 5.60054 20.2929 5.99106L15.3005 10.9835C14.91 11.374 14.2769 11.374 13.8864 10.9836L11.9328 9.03068C11.5423 8.6403 10.9092 8.64031 10.5188 9.03071L7.11364 12.435C6.7231 12.8255 6.09 12.8254 5.69951 12.435L5.52632 12.2618C5.13579 11.8712 5.1358 11.2381 5.52632 10.8476L10.5188 5.85511C10.9092 5.46464 11.5423 5.46458 11.9329 5.855L13.8864 7.80794C14.277 8.19832 14.91 8.1983 15.3005 7.8079L18.7056 4.40358Z" fill="#A5A5A5"/>
</svg>
