<svg width="74" height="74" viewBox="0 0 74 74" fill="none" xmlns="http://www.w3.org/2000/svg">
<g filter="url(#filter0_b_41_736)">
<circle cx="37" cy="37" r="37" fill="url(#paint0_linear_41_736)"/>
</g>
<path d="M36.6146 22C35.5451 22.9966 34.6872 24.1984 34.0923 25.5337C33.4973 26.8691 33.1774 28.3105 33.1516 29.7722C33.1258 31.2338 33.3947 32.6857 33.9422 34.0412C34.4897 35.3967 35.3046 36.628 36.3383 37.6617C37.372 38.6954 38.6033 39.5103 39.9588 40.0578C41.3143 40.6053 42.7662 40.8742 44.2278 40.8484C45.6895 40.8226 47.1309 40.5027 48.4663 39.9077C49.8016 39.3128 51.0034 38.4549 52 37.3854C51.5384 44.9837 45.2304 51.0014 37.516 51.0014C29.4981 51.0014 23 44.5033 23 36.4869C23 28.7725 29.0177 22.4645 36.6146 22Z" fill="black"/>
<defs>
<filter id="filter0_b_41_736" x="-11" y="-11" width="96" height="96" filterUnits="userSpaceOnUse" color-interpolation-filters="sRGB">
<feFlood flood-opacity="0" result="BackgroundImageFix"/>
<feGaussianBlur in="BackgroundImageFix" stdDeviation="5.5"/>
<feComposite in2="SourceAlpha" operator="in" result="effect1_backgroundBlur_41_736"/>
<feBlend mode="normal" in="SourceGraphic" in2="effect1_backgroundBlur_41_736" result="shape"/>
</filter>
<linearGradient id="paint0_linear_41_736" x1="37" y1="0" x2="37" y2="74" gradientUnits="userSpaceOnUse">
<stop stop-opacity="0.49"/>
<stop offset="1" stop-opacity="0.37"/>
</linearGradient>
</defs>
</svg>
