<svg width="74" height="74" viewBox="0 0 74 74" fill="none" xmlns="http://www.w3.org/2000/svg">
<g filter="url(#filter0_b_41_733)">
<circle cx="37" cy="37" r="37" fill="url(#paint0_linear_41_733)"/>
</g>
<path d="M37.37 47.3264C34.5332 47.3264 31.8125 46.1994 29.8065 44.1935C27.8006 42.1875 26.6736 39.4669 26.6736 36.63C26.6736 33.7932 27.8006 31.0725 29.8065 29.0665C31.8125 27.0606 34.5332 25.9337 37.37 25.9337C40.2069 25.9337 42.9275 27.0606 44.9335 29.0665C46.9394 31.0725 48.0664 33.7932 48.0664 36.63C48.0664 39.4669 46.9394 42.1875 44.9335 44.1935C42.9275 46.1994 40.2069 47.3264 37.37 47.3264ZM35.5873 18.8027C35.5873 17.8182 36.3854 17.02 37.37 17.02C38.3546 17.02 39.1527 17.8182 39.1527 18.8027V20.5855C39.1527 21.57 38.3546 22.3682 37.37 22.3682C36.3854 22.3682 35.5873 21.57 35.5873 20.5855V18.8027ZM35.5873 52.6746C35.5873 51.69 36.3854 50.8918 37.37 50.8918C38.3546 50.8918 39.1527 51.69 39.1527 52.6746V54.4573C39.1527 55.4419 38.3546 56.24 37.37 56.24C36.3854 56.24 35.5873 55.4419 35.5873 54.4573V52.6746ZM23.504 25.2847C22.8079 24.5886 22.8079 23.4601 23.504 22.764C24.2001 22.0679 25.3286 22.0679 26.0247 22.764L27.2851 24.0244C27.9812 24.7205 27.9812 25.849 27.2851 26.5451C26.589 27.2412 25.4604 27.2412 24.7643 26.5451L23.504 25.2847ZM47.4549 49.2357C46.7588 48.5396 46.7588 47.411 47.4549 46.7149C48.151 46.0188 49.2796 46.0188 49.9757 46.7149L51.2361 47.9753C51.9322 48.6714 51.9322 49.8 51.2361 50.4961C50.54 51.1922 49.4114 51.1922 48.7153 50.4961L47.4549 49.2357ZM49.9757 21.5033C49.9757 21.5028 49.9764 21.5025 49.9768 21.5029L51.7586 23.286C52.1661 23.6938 52.166 24.3548 51.7583 24.7625L49.9757 26.5451C49.2796 27.2412 48.151 27.2412 47.4549 26.5451C46.7588 25.849 46.7588 24.7204 47.4549 24.0244L49.9755 21.5038C49.9756 21.5036 49.9757 21.5035 49.9757 21.5033ZM24.7643 46.7149C25.4604 46.0188 26.589 46.0188 27.2851 46.7149C27.9812 47.411 27.9812 48.5396 27.2851 49.2357L26.0247 50.4961C25.3286 51.1922 24.2001 51.1922 23.504 50.4961C22.8079 49.8 22.8079 48.6714 23.504 47.9753L24.7643 46.7149ZM55.1973 34.8473C56.1819 34.8473 56.98 35.6454 56.98 36.63C56.98 37.6146 56.1819 38.4127 55.1973 38.4127H53.4146C52.43 38.4127 51.6318 37.6146 51.6318 36.63C51.6318 35.6454 52.43 34.8473 53.4146 34.8473H55.1973ZM21.3255 34.8473C22.31 34.8473 23.1082 35.6454 23.1082 36.63C23.1082 37.6146 22.31 38.4127 21.3255 38.4127H19.5427C18.5582 38.4127 17.76 37.6146 17.76 36.63C17.76 35.6454 18.5582 34.8473 19.5427 34.8473H21.3255Z" fill="black"/>
<defs>
<filter id="filter0_b_41_733" x="-11" y="-11" width="96" height="96" filterUnits="userSpaceOnUse" color-interpolation-filters="sRGB">
<feFlood flood-opacity="0" result="BackgroundImageFix"/>
<feGaussianBlur in="BackgroundImageFix" stdDeviation="5.5"/>
<feComposite in2="SourceAlpha" operator="in" result="effect1_backgroundBlur_41_733"/>
<feBlend mode="normal" in="SourceGraphic" in2="effect1_backgroundBlur_41_733" result="shape"/>
</filter>
<linearGradient id="paint0_linear_41_733" x1="37" y1="0" x2="37" y2="74" gradientUnits="userSpaceOnUse">
<stop stop-color="white" stop-opacity="0.49"/>
<stop offset="1" stop-color="white" stop-opacity="0.37"/>
</linearGradient>
</defs>
</svg>
