<svg  width="90" height="57" viewBox="0 0 90 57" fill="none" xmlns="http://www.w3.org/2000/svg">
<g filter="url(#filter0_d_2_15)">
<path d="M34.2853 19.5117C30.9519 22.7664 27.6185 26.0193 24.285 29.274C19.925 31.8239 17.6007 31.3185 16.7455 31.0194C16.4762 30.925 16.0739 30.7536 15.9515 30.7011C14.3618 30.0243 12.8402 29.3947 11.5076 28.1617C11.0913 27.777 10.5352 27.1858 10 26.3359C11.6772 26.3289 14.3565 26.1033 17.3017 24.8283C20.0387 23.6426 21.8191 22.0598 23.4123 20.6222C25.2574 18.9555 25.6894 18.1615 28.8095 14.6707C30.5216 12.7557 31.9697 11.2289 32.9369 10.2267C33.2587 10.1131 34.3325 9.77902 35.555 10.2267C36.3874 10.531 36.9034 11.0575 37.143 11.3373C43.0158 17.2101 48.8886 23.0829 54.7614 28.9557C55.3018 30.11 57.0228 34.1517 55.5554 38.7968C55.1969 39.9284 54.3137 42.5954 51.6659 44.5909C51.3528 44.827 47.6399 47.5326 43.0945 46.4955C40.9871 46.0145 39.5722 44.9267 38.4127 44.0348C37.136 43.0536 35.6704 41.9274 34.7627 39.9074C33.8953 37.9818 34.0929 36.121 34.287 33.8754C34.4077 32.478 34.6455 31.3308 34.8432 30.542C37.5417 33.1881 40.2403 35.8324 42.9388 38.4785C45.2701 39.29 47.4965 38.8563 48.4147 37.5254C48.99 36.6911 48.9183 35.696 48.8904 35.3025C48.7207 32.924 46.6815 31.5494 46.351 31.3343C42.3285 27.394 38.3077 23.4537 34.2853 19.5117Z"/>
<path d="M53.6002 21.8132C51.8547 20.1203 50.1076 18.4273 48.3622 16.7344C50.3997 14.6445 52.4354 12.5545 54.4729 10.4646C54.5516 10.4226 56.3687 9.48171 57.885 10.4646C58.5391 10.8878 58.8556 11.4877 58.9955 11.813C62.0648 15.0677 65.1324 18.3207 68.2017 21.5754C69.7618 22.6597 71.3235 23.744 72.8836 24.8301C73.4362 25.1501 74.3019 25.5856 75.423 25.8619C78.0586 26.5125 79.6308 25.6853 79.9474 26.2589C80.3794 27.0424 78.0988 29.7987 75.0277 30.7833C72.4761 31.6018 70.2357 30.9215 69.5519 30.7046C67.469 30.0418 66.131 28.8211 65.5049 28.1652C62.5161 25.2026 59.5254 22.24 56.5366 19.2773"/>
</g>
<defs>
<filter id="filter0_d_2_15" x="0" y="0" width="90" height="56.7313" filterUnits="userSpaceOnUse" color-interpolation-filters="sRGB">
<feFlood flood-opacity="0" result="BackgroundImageFix"/>
<feColorMatrix in="SourceAlpha" type="matrix" values="0 0 0 0 0 0 0 0 0 0 0 0 0 0 0 0 0 0 127 0" result="hardAlpha"/>
<feOffset/>
<feGaussianBlur stdDeviation="5"/>
<feComposite in2="hardAlpha" operator="out"/>
<feColorMatrix type="matrix" values="0 0 0 0 1 0 0 0 0 1 0 0 0 0 1 0 0 0 0.36 0"/>
<feBlend mode="normal" in2="BackgroundImageFix" result="effect1_dropShadow_2_15"/>
<feBlend mode="normal" in="SourceGraphic" in2="effect1_dropShadow_2_15" result="shape"/>
</filter>
</defs>
</svg>
