<svg width="45" height="45" viewBox="0 0 45 45" fill="none" xmlns="http://www.w3.org/2000/svg">
<circle cx="22.5" cy="22.5" r="21.5" stroke="white" stroke-width="2"/>
<path d="M12 22C11.4477 22 11 22.4477 11 23C11 23.5523 11.4477 24 12 24V22ZM33.7071 23.7071C34.0976 23.3166 34.0976 22.6834 33.7071 22.2929L27.3431 15.9289C26.9526 15.5384 26.3195 15.5384 25.9289 15.9289C25.5384 16.3195 25.5384 16.9526 25.9289 17.3431L31.5858 23L25.9289 28.6569C25.5384 29.0474 25.5384 29.6805 25.9289 30.0711C26.3195 30.4616 26.9526 30.4616 27.3431 30.0711L33.7071 23.7071ZM12 24H33V22H12V24Z"/>
</svg>
