<svg className="dark:fill-white fill-black" width="45" height="45" viewBox="0 0 45 45" fill="none" xmlns="http://www.w3.org/2000/svg">
<circle cx="22.5" cy="22.5" r="21.5" transform="rotate(180 22.5 22.5)" stroke="white" stroke-opacity="0.23" stroke-width="2"/>
<path d="M33 23C33.5523 23 34 22.5523 34 22C34 21.4477 33.5523 21 33 21V23ZM11.2929 21.2929C10.9024 21.6834 10.9024 22.3166 11.2929 22.7071L17.6569 29.0711C18.0474 29.4616 18.6805 29.4616 19.0711 29.0711C19.4616 28.6805 19.4616 28.0474 19.0711 27.6569L13.4142 22L19.0711 16.3431C19.4616 15.9526 19.4616 15.3195 19.0711 14.9289C18.6805 14.5384 18.0474 14.5384 17.6569 14.9289L11.2929 21.2929ZM33 21L12 21V23L33 23V21Z" fill-opacity="0.23"/>
</svg>
