<svg  width="21" height="21" viewBox="0 0 21 21" fill="none" xmlns="http://www.w3.org/2000/svg">
<path d="M16.031 15.0815L20.314 19.3635L18.899 20.7785L14.617 16.4955C13.0237 17.7727 11.042 18.4674 9 18.4645C4.032 18.4645 0 14.4325 0 9.4645C0 4.4965 4.032 0.4645 9 0.4645C13.968 0.4645 18 4.4965 18 9.4645C18.0029 11.5065 17.3082 13.4882 16.031 15.0815ZM14.025 14.3395C15.2941 13.0344 16.0029 11.2849 16 9.4645C16 5.5965 12.867 2.4645 9 2.4645C5.132 2.4645 2 5.5965 2 9.4645C2 13.3315 5.132 16.4645 9 16.4645C10.8204 16.4674 12.5699 15.7586 13.875 14.4895L14.025 14.3395Z"/>
</svg>
